# xmcd CD database file
#
# Track frame offsets:
#	150
#	16912
#	35790
#	54230
#	74700
#	94080
#	110555
#	130745
#	151430
#	172787
#	197775
#	225787
#	250985
#	274652
#	297715
#	332990
#
# Disc length: 4795 seconds
#
# Revision: 0
# Processed by: cddbd v1.5.1PL0 Copyright (c) Steve Scherf et al.
# Submitted via: CDex 1.51
#
DISCID=e612b910
DTITLE=オムニバス - 速報！歌の大辞10　８０’ｓVS９０’ｓ〜BALLADS〜
DYEAR=2004
DGENRE=Vocal
TTITLE0=木枯らしに抱かれて／小泉今日子
TTITLE1=ワインレッドの心／安全地帯
TTITLE2=スローモーション／中森明菜
TTITLE3=シャイニン・オン　君が哀しい／LOOK
TTITLE4=ダンスはうまく踊れない／高樹澪
TTITLE5=まちぶせ／石川ひとみ
TTITLE6=雨音はショパンの調べ／小林麻美
TTITLE7=Ｍ／プリンセス プリンセス
TTITLE8=Over and Over／EveryLittleThing
TTITLE9=Is this love／globe
TTITLE10=Ｌ．Ｏ．Ｔ．（ＬｏｖｅＯｒＴｒｕｔｈ）／m-flo
TTITLE11=SWEET 19 BLUES／安室奈美恵
TTITLE12=一緒に…／MAX
TTITLE13=寒い夜だから…／TRF
TTITLE14=TO BE／浜崎あゆみ
TTITLE15=DATA
EXTD=YEAR: 2004
EXTT0=
EXTT1=
EXTT2=
EXTT3=
EXTT4=
EXTT5=
EXTT6=
EXTT7=
EXTT8=
EXTT9=
EXTT10=
EXTT11=
EXTT12=
EXTT13=
EXTT14=
EXTT15=
PLAYORDER=
